<?xml version="1.0" encoding="utf-8"?>
<!-- Generator: Adobe Illustrator 23.0.3, SVG Export Plug-In . SVG Version: 6.00 Build 0)  -->
<svg version="1.1" xmlns="http://www.w3.org/2000/svg" xmlns:xlink="http://www.w3.org/1999/xlink" x="0px" y="0px"
	 viewBox="0 0 100 100" style="enable-background:new 0 0 100 100;" xml:space="preserve">
<style type="text/css">
	.st0{display:none;}
	.st1{fill:#1A171D;}
</style>
<g id="Layer_1" class="st0">
	
		<image style="display:inline;overflow:visible;" width="1300" height="1300" xlink:href="D:\Users\sulfo\Downloads\delete\44713762-fish-on-plate-icon.jpg"  transform="matrix(0.24 0 0 0.24 -106 -106)">
	</image>
</g>
<g id="food_icon">
	<g id="foodGroup">
		<path id="smallPlate" class="st1" d="M88.8,87.9c0,0-1.3,1.2-2.7,1.2H51.4c0,0-1.1,0-2.8,0H13.9c-1.3,0-2.7-1.2-2.7-1.2H88.8z"/>
		<path id="bigPlate" class="st1" d="M98.9,81.8c0,0-2.5,4.9-7.7,4.9H51.4c0,0-1.1,0-2.8,0H8.8c-5.2,0-7.7-4.9-7.7-4.9H98.9z"/>
		<path id="flame3" d="M55.3,10.9c0,0,20.4,5.9,20.4,20.6c0,8.3-4.2,18.2-4.2,27.4c0,10.8,9.5,17,9.5,17s-20.3-5.3-20.3-20.5
			c0-8.4,4.2-15.8,4.2-28.1S55.3,10.9,55.3,10.9z"/>
		<path id="flame2" d="M37.6,18.2c0,0,16.5,4.8,16.5,16.7c0,6.7-3.4,14.7-3.4,22.2c0,8.7,7.7,13.7,7.7,13.7s-16.4-4.3-16.4-16.6
			c0-6.8,3.4-12.8,3.4-22.7S37.6,18.2,37.6,18.2z"/>
		<path id="flame1" d="M21.8,31.5c0,0,10.8,3.1,10.8,10.9c0,4.4-2.2,9.6-2.2,14.5c0,5.7,5.1,9,5.1,9s-10.7-2.8-10.7-10.9
			c0-4.5,2.2-8.4,2.2-14.9S21.8,31.5,21.8,31.5z"/>
	</g>
</g>
</svg>
