<?xml version="1.0" encoding="utf-8"?>
<!-- Generator: Adobe Illustrator 23.0.3, SVG Export Plug-In . SVG Version: 6.00 Build 0)  -->
<svg version="1.1" id="Layer_1" xmlns="http://www.w3.org/2000/svg" xmlns:xlink="http://www.w3.org/1999/xlink" x="0px" y="0px"
	 viewBox="0 0 100 100" style="enable-background:new 0 0 100 100;" xml:space="preserve">
<style type="text/css">
	.st0{display:none;}
	.st1{fill:#1A171D;}
</style>
<g class="st0">
	
		<image style="display:inline;overflow:visible;enable-background:new    ;" width="1300" height="1300" xlink:href="D:\Users\sulfo\Downloads\delete\44713762-fish-on-plate-icon.jpg"  transform="matrix(0.24 0 0 0.24 -106 -106)">
	</image>
</g>
<g id="food_icon">
	<g id="foodGroup">
		<path id="smallPlate" class="st1" d="M62.5,62.2c0,0-0.4,0.4-0.9,0.4H50.5c0,0-0.4,0-0.9,0H38.4c-0.4,0-0.9-0.4-0.9-0.4H62.5z"/>
		<path id="bigPlate" class="st1" d="M65.8,60.2c0,0-0.8,1.6-2.5,1.6H50.5c0,0-0.4,0-0.9,0H36.7c-1.7,0-2.5-1.6-2.5-1.6H65.8z"/>
		<path id="flame3" d="M51.7,37.4c0,0,6.6,1.9,6.6,6.6c0,2.7-1.4,5.9-1.4,8.8c0,3.5,3.1,5.5,3.1,5.5s-6.5-1.7-6.5-6.6
			c0-2.7,1.4-5.1,1.4-9.1S51.7,37.4,51.7,37.4z"/>
		<path id="flame2" d="M46,39.8c0,0,5.3,1.5,5.3,5.4c0,2.2-1.1,4.7-1.1,7.2c0,2.8,2.5,4.4,2.5,4.4s-5.3-1.4-5.3-5.4
			c0-2.2,1.1-4.1,1.1-7.3C48.5,40.8,46,39.8,46,39.8z"/>
		<path id="flame1" d="M40.9,44c0,0,3.5,1,3.5,3.5c0,1.4-0.7,3.1-0.7,4.7c0,1.8,1.6,2.9,1.6,2.9s-3.4-0.9-3.4-3.5
			c0-1.5,0.7-2.7,0.7-4.8C42.6,44.7,40.9,44,40.9,44z"/>
	</g>
</g>
<g>
	<path d="M70.3,35.4c-10.6-10.6-27.8-10.6-38.3,0C21.4,46,21.4,63.2,32,73.8c9.4,9.4,24.1,10.4,34.6,3.1c0.2,1.1,0.7,2.1,1.5,2.9
		l15.4,15.4c2.2,2.2,5.9,2.2,8.1,0c2.2-2.2,2.2-5.9,0-8.1L76.2,71.6c-0.8-0.8-1.8-1.3-2.9-1.5C80.7,59.5,79.7,44.9,70.3,35.4z
		 M65.4,68.9c-7.9,7.9-20.7,7.9-28.6,0c-7.9-7.9-7.9-20.7,0-28.6c7.9-7.9,20.7-7.9,28.6,0C73.3,48.2,73.3,61,65.4,68.9z"/>
</g>
</svg>
